# xmcd
#
# Track frame offsets:
#	150
#	23751
#	42804
#	65574
#	92593
#	119287
#	154295
#	171853
#	190493
#	208688
#	230085
#	252845
#
# Disc length: 3629 seconds
#
# Revision: 0
# Processed by: cddbd v1.5.2PL0 Copyright (c) Steve Scherf et al.
# Submitted via: EasyCDDAExtractor 4.6.0.1
#
DISCID=a40e2b0c
DTITLE=Ronnie Baker Brooks - Golddigger
DYEAR=1998
DGENRE=Blues
TTITLE0=She's A Golddigger
TTITLE1=Turn A Bad Into A Positive
TTITLE2=Baby Please (Come Back Home)
TTITLE3=Where Do I Stand In Line
TTITLE4=Love Rebound
TTITLE5=Stuck On Stupid
TTITLE6=You Make Me feel So Good
TTITLE7=Make These Blues Survive
TTITLE8=Must've Been Bought
TTITLE9=Bald-headed Woman
TTITLE10=Cry Baby Cry
TTITLE11=I'll See You Again
EXTD=
EXTT0=
EXTT1=
EXTT2=
EXTT3=
EXTT4=
EXTT5=
EXTT6=
EXTT7=
EXTT8=
EXTT9=
EXTT10=
EXTT11=
PLAYORDER=
